<svg width="146" height="40" fill="none" xmlns="http://www.w3.org/2000/svg"><path fill="#fff" stroke="#2C2830" stroke-width="1.5" d="M.75.75h144.5v38.5H.75z"/><path d="m30.62 16.563 2.054 6.513 2.08-6.513h1.612L33.467 25h-1.612l-2.86-8.437h1.625Zm8.72 0h1.535V25H39.34v-8.437Zm5.436 0h5.434v1.326h-3.9v2.223h3.653v1.326H46.31v2.223h3.9V25h-5.434v-8.437Zm9.897 0 1.86 6.409 1.806-5.85h1.04l1.911 5.876 1.976-6.435h1.73L62.095 25h-1.612l-1.586-4.758L57.325 25h-1.612l-2.756-8.437h1.716Zm21.015 0c.953 0 1.694.234 2.223.702.537.46.806 1.122.806 1.989 0 .858-.269 1.521-.806 1.989-.529.46-1.27.689-2.223.689h-1.43V25h-1.547v-8.437h2.977Zm0 4.03c.477 0 .836-.126 1.079-.377s.364-.572.364-.962c0-.399-.121-.724-.364-.975-.243-.26-.602-.39-1.079-.39h-1.43v2.704h1.43Zm7.65 3.068h3.47V25h-5.004v-8.437h1.534v7.098Zm8.34-7.098h1.924L96.37 25h-1.625l-.585-1.82h-3.133L90.43 25h-1.625l2.873-8.437Zm-.26 5.46h2.366l-1.17-3.627-1.196 3.627Zm9.598-5.46 3.718 5.98v-5.98h1.534V25h-1.56l-3.835-6.188V25h-1.534v-8.437h1.677Zm13.601 2.327c-.139-.737-.659-1.105-1.56-1.105-.442 0-.789.091-1.04.273-.243.173-.364.386-.364.637s.078.45.234.598c.164.139.416.269.754.39l1.833.715c.624.243 1.105.55 1.443.923.338.364.507.823.507 1.378 0 .763-.286 1.37-.858 1.82-.572.442-1.387.663-2.444.663-.936 0-1.695-.23-2.275-.689-.65-.503-.993-1.213-1.027-2.132h1.521c0 .693.359 1.131 1.079 1.313.216.06.502.091.858.091.355 0 .684-.087.988-.26.303-.182.455-.42.455-.715 0-.303-.083-.533-.247-.689-.165-.165-.434-.316-.806-.455l-1.677-.663c-.65-.251-1.149-.546-1.495-.884-.347-.338-.52-.806-.52-1.404 0-.702.273-1.257.819-1.664.554-.425 1.304-.637 2.249-.637.953 0 1.685.221 2.197.663.52.433.819 1.044.897 1.833h-1.521Z" fill="#2C2830"/></svg>